<svg height="24" viewBox="0 0 24 24" width="24" xmlns="http://www.w3.org/2000/svg"><path d="m15.2398038 3.86764935c-1.4193379 1.31712054-2.2398038 3.15777959-2.2398038 5.13235065 0 3.8659932 3.1340068 7 7 7 .1451744 0 .2897556-.0044058.4336241-.013179l2.0095304-.1225434-1.1165401 1.6752813c-1.8423409 2.7642889-4.9412375 4.4604411-8.3266144 4.4604411-5.5228475 0-10-4.4771525-10-10s4.4771525-10 10-10c.5846805 0 1.1634362.05028518 1.7316831.14956084l1.9857081.34691345zm-10.2398038 8.13235065c0 4.418278 3.581722 8 8 8 2.0609678 0 3.9878304-.784662 5.4414082-2.1344672-4.2277064-.7381125-7.4414082-4.4265225-7.4414082-8.8655328 0-1.80816502.5366814-3.53151955 1.5051382-4.98494422-4.18778991.25556875-7.5051382 3.73285238-7.5051382 7.98494422z" fill-rule="evenodd"/></svg>